ISO-10303-21;
HEADER;
FILE_DESCRIPTION( ( 'STEP Version 203' ), '1' );
FILE_NAME( 'H:/6/1/\X2\4EA754C156DB\X0\.stp', '04/27/26 20:50:26', ( 'liuti' ), ( '  ' ), 'PSStep 21.0.47', 'DesignModeler STEP Output', '  ' );
FILE_SCHEMA( ( 'CONFIG_CONTROL_DESIGN' ) );
ENDSEC;
DATA;
#1 = DESIGN_CONTEXT( '', #51, 'design' );
#2 = APPLICATION_PROTOCOL_DEFINITION( 'international standard', 'config_control_design', 1994, #51 );
#3 = PRODUCT_CATEGORY_RELATIONSHIP( 'NONE', 'NONE', #52, #53 );
#4 = DATE_AND_TIME( #54, #55 );
#5 = DATE_TIME_ROLE( 'creation_date' );
#6 = DATE_TIME_ROLE( 'classification_date' );
#7 = PERSON_AND_ORGANIZATION_ROLE( 'creator' );
#8 = PERSON_AND_ORGANIZATION_ROLE( 'design_supplier' );
#9 = PERSON_AND_ORGANIZATION_ROLE( 'classification_officer' );
#10 = PERSON_AND_ORGANIZATION_ROLE( 'design_owner' );
#11 = APPROVAL_PERSON_ORGANIZATION( #56, #57, #58 );
#12 = APPROVAL_DATE_TIME( #4, #57 );
#13 = CC_DESIGN_APPROVAL( #57, ( #59, #60, #61 ) );
#14 = CC_DESIGN_DATE_AND_TIME_ASSIGNMENT( #4, #5, ( #61 ) );
#15 = CC_DESIGN_DATE_AND_TIME_ASSIGNMENT( #4, #6, ( #59 ) );
#16 = CC_DESIGN_PERSON_AND_ORGANIZATION_ASSIGNMENT( #56, #10, ( #62 ) );
#17 = CC_DESIGN_PERSON_AND_ORGANIZATION_ASSIGNMENT( #56, #7, ( #61 ) );
#18 = CC_DESIGN_PERSON_AND_ORGANIZATION_ASSIGNMENT( #56, #7, ( #60 ) );
#19 = CC_DESIGN_PERSON_AND_ORGANIZATION_ASSIGNMENT( #56, #8, ( #60 ) );
#20 = CC_DESIGN_SECURITY_CLASSIFICATION( #59, ( #60 ) );
#21 = CC_DESIGN_PERSON_AND_ORGANIZATION_ASSIGNMENT( #56, #9, ( #59 ) );
#22 = SHAPE_DEFINITION_REPRESENTATION( #63, #64 );
#23 = PRODUCT_CATEGORY_RELATIONSHIP( 'NONE', 'NONE', #52, #65 );
#24 = DATE_AND_TIME( #66, #67 );
#25 = APPROVAL_DATE_TIME( #24, #57 );
#26 = CC_DESIGN_APPROVAL( #57, ( #59, #68, #69 ) );
#27 = CC_DESIGN_DATE_AND_TIME_ASSIGNMENT( #24, #5, ( #69 ) );
#28 = CC_DESIGN_DATE_AND_TIME_ASSIGNMENT( #24, #6, ( #59 ) );
#29 = CC_DESIGN_PERSON_AND_ORGANIZATION_ASSIGNMENT( #56, #10, ( #70 ) );
#30 = CC_DESIGN_PERSON_AND_ORGANIZATION_ASSIGNMENT( #56, #7, ( #69 ) );
#31 = CC_DESIGN_PERSON_AND_ORGANIZATION_ASSIGNMENT( #56, #7, ( #68 ) );
#32 = CC_DESIGN_PERSON_AND_ORGANIZATION_ASSIGNMENT( #56, #8, ( #68 ) );
#33 = CC_DESIGN_SECURITY_CLASSIFICATION( #59, ( #68 ) );
#34 = SHAPE_DEFINITION_REPRESENTATION( #71, #72 );
#35 = PRODUCT_CATEGORY_RELATIONSHIP( 'NONE', 'NONE', #52, #73 );
#36 = DATE_AND_TIME( #74, #75 );
#37 = APPROVAL_DATE_TIME( #36, #57 );
#38 = CC_DESIGN_APPROVAL( #57, ( #59, #76, #77 ) );
#39 = CC_DESIGN_DATE_AND_TIME_ASSIGNMENT( #36, #5, ( #77 ) );
#40 = CC_DESIGN_DATE_AND_TIME_ASSIGNMENT( #36, #6, ( #59 ) );
#41 = CC_DESIGN_PERSON_AND_ORGANIZATION_ASSIGNMENT( #56, #10, ( #78 ) );
#42 = CC_DESIGN_PERSON_AND_ORGANIZATION_ASSIGNMENT( #56, #7, ( #77 ) );
#43 = CC_DESIGN_PERSON_AND_ORGANIZATION_ASSIGNMENT( #56, #7, ( #76 ) );
#44 = CC_DESIGN_PERSON_AND_ORGANIZATION_ASSIGNMENT( #56, #8, ( #76 ) );
#45 = CC_DESIGN_SECURITY_CLASSIFICATION( #59, ( #76 ) );
#46 = SHAPE_DEFINITION_REPRESENTATION( #79, #80 );
#47 =  ( GEOMETRIC_REPRESENTATION_CONTEXT( 3 )GLOBAL_UNCERTAINTY_ASSIGNED_CONTEXT( ( #83 ) )GLOBAL_UNIT_ASSIGNED_CONTEXT( ( #85, #86, #87 ) )REPRESENTATION_CONTEXT( 'NONE', 'WORKSPACE' ) );
#51 = APPLICATION_CONTEXT( 'configuration controlled 3D designs of mechanical parts and assemblies' );
#52 = PRODUCT_CATEGORY( 'part', 'NONE' );
#53 = PRODUCT_RELATED_PRODUCT_CATEGORY( 'detail', ' ', ( #62 ) );
#54 = CALENDAR_DATE( 2026, 27, 3 );
#55 = LOCAL_TIME( 20, 50, 26.0000000000000, #89 );
#56 = PERSON_AND_ORGANIZATION( #90, #91 );
#57 = APPROVAL( #92, 'SOLID MODEL' );
#58 = APPROVAL_ROLE( 'APPROVED' );
#59 = SECURITY_CLASSIFICATION( '', '', #93 );
#60 = PRODUCT_DEFINITION_FORMATION_WITH_SPECIFIED_SOURCE( ' ', 'NONE', #62, .NOT_KNOWN. );
#61 = PRODUCT_DEFINITION( 'NONE', 'NONE', #60, #1 );
#62 = PRODUCT( '1', '1', 'PART-1-DESC', ( #94 ) );
#63 = PRODUCT_DEFINITION_SHAPE( 'NONE', 'NONE', #61 );
#64 = MANIFOLD_SURFACE_SHAPE_REPRESENTATION( '1', ( #95, #96 ), #47 );
#65 = PRODUCT_RELATED_PRODUCT_CATEGORY( 'detail', ' ', ( #70 ) );
#66 = CALENDAR_DATE( 2026, 27, 3 );
#67 = LOCAL_TIME( 20, 50, 26.0000000000000, #97 );
#68 = PRODUCT_DEFINITION_FORMATION_WITH_SPECIFIED_SOURCE( ' ', 'NONE', #70, .NOT_KNOWN. );
#69 = PRODUCT_DEFINITION( 'NONE', 'NONE', #68, #1 );
#70 = PRODUCT( '2', '2', 'PART-2-DESC', ( #94 ) );
#71 = PRODUCT_DEFINITION_SHAPE( 'NONE', 'NONE', #69 );
#72 = MANIFOLD_SURFACE_SHAPE_REPRESENTATION( '2', ( #98, #99 ), #47 );
#73 = PRODUCT_RELATED_PRODUCT_CATEGORY( 'detail', ' ', ( #78 ) );
#74 = CALENDAR_DATE( 2026, 27, 3 );
#75 = LOCAL_TIME( 20, 50, 26.0000000000000, #100 );
#76 = PRODUCT_DEFINITION_FORMATION_WITH_SPECIFIED_SOURCE( ' ', 'NONE', #78, .NOT_KNOWN. );
#77 = PRODUCT_DEFINITION( 'NONE', 'NONE', #76, #1 );
#78 = PRODUCT( '3', '3', 'PART-3-DESC', ( #94 ) );
#79 = PRODUCT_DEFINITION_SHAPE( 'NONE', 'NONE', #77 );
#80 = MANIFOLD_SURFACE_SHAPE_REPRESENTATION( '3', ( #101, #102 ), #47 );
#83 = UNCERTAINTY_MEASURE_WITH_UNIT( LENGTH_MEASURE( 1.00000000000000E-06 ), #85, '', '' );
#85 =  ( CONVERSION_BASED_UNIT( 'METRE', #105 )LENGTH_UNIT(  )NAMED_UNIT( #108 ) );
#86 =  ( NAMED_UNIT( #110 )PLANE_ANGLE_UNIT(  )SI_UNIT( $, .RADIAN. ) );
#87 =  ( NAMED_UNIT( #110 )SI_UNIT( $, .STERADIAN. )SOLID_ANGLE_UNIT(  ) );
#89 = COORDINATED_UNIVERSAL_TIME_OFFSET( 8, 0, .AHEAD. );
#90 = PERSON( '', 'UNSPECIFIED', $, $, $, $ );
#91 = ORGANIZATION( 'UNSPECIFIED', 'UNSPECIFIED', 'UNSPECIFIED' );
#92 = APPROVAL_STATUS( 'approved' );
#93 = SECURITY_CLASSIFICATION_LEVEL( 'unclassified' );
#94 = MECHANICAL_CONTEXT( '', #51, 'mechanical' );
#95 = SHELL_BASED_SURFACE_MODEL( '1', ( #116 ) );
#96 = AXIS2_PLACEMENT_3D( '', #117, #118, #119 );
#97 = COORDINATED_UNIVERSAL_TIME_OFFSET( 8, 0, .AHEAD. );
#98 = SHELL_BASED_SURFACE_MODEL( '2', ( #120 ) );
#99 = AXIS2_PLACEMENT_3D( '', #121, #122, #123 );
#100 = COORDINATED_UNIVERSAL_TIME_OFFSET( 8, 0, .AHEAD. );
#101 = SHELL_BASED_SURFACE_MODEL( '3', ( #124 ) );
#102 = AXIS2_PLACEMENT_3D( '', #125, #126, #127 );
#105 = LENGTH_MEASURE_WITH_UNIT( LENGTH_MEASURE( 1.00000000000000 ), #128 );
#108 = DIMENSIONAL_EXPONENTS( 1.00000000000000, 0.00000000000000, 0.00000000000000, 0.00000000000000, 0.00000000000000, 0.00000000000000, 0.00000000000000 );
#110 = DIMENSIONAL_EXPONENTS( 0.00000000000000, 0.00000000000000, 0.00000000000000, 0.00000000000000, 0.00000000000000, 0.00000000000000, 0.00000000000000 );
#116 = CLOSED_SHELL( '', ( #129 ) );
#117 = CARTESIAN_POINT( '', ( 0.00000000000000, 0.00000000000000, 0.00000000000000 ) );
#118 = DIRECTION( '', ( 0.00000000000000, 0.00000000000000, 1.00000000000000 ) );
#119 = DIRECTION( '', ( 1.00000000000000, 0.00000000000000, 0.00000000000000 ) );
#120 = CLOSED_SHELL( '', ( #130 ) );
#121 = CARTESIAN_POINT( '', ( 0.00000000000000, 0.00000000000000, 0.00000000000000 ) );
#122 = DIRECTION( '', ( 0.00000000000000, 0.00000000000000, 1.00000000000000 ) );
#123 = DIRECTION( '', ( 1.00000000000000, 0.00000000000000, 0.00000000000000 ) );
#124 = CLOSED_SHELL( '', ( #131 ) );
#125 = CARTESIAN_POINT( '', ( 0.00000000000000, 0.00000000000000, 0.00000000000000 ) );
#126 = DIRECTION( '', ( 0.00000000000000, 0.00000000000000, 1.00000000000000 ) );
#127 = DIRECTION( '', ( 1.00000000000000, 0.00000000000000, 0.00000000000000 ) );
#128 =  ( LENGTH_UNIT(  )NAMED_UNIT( #108 )SI_UNIT( $, .METRE. ) );
#129 = FACE_SURFACE( '', ( #133 ), #134, .F. );
#130 = FACE_SURFACE( '', ( #135 ), #136, .T. );
#131 = FACE_SURFACE( '', ( #137 ), #138, .T. );
#133 = FACE_BOUND( '', #139, .T. );
#134 = PLANE( '', #140 );
#135 = FACE_BOUND( '', #141, .T. );
#136 = PLANE( '', #142 );
#137 = FACE_BOUND( '', #143, .T. );
#138 = PLANE( '', #144 );
#139 = EDGE_LOOP( '', ( #145, #146, #147, #148, #149, #150, #151, #152, #153, #154, #155 ) );
#140 = AXIS2_PLACEMENT_3D( '', #156, #157, #158 );
#141 = EDGE_LOOP( '', ( #159, #160, #161, #162, #163, #164, #165, #166 ) );
#142 = AXIS2_PLACEMENT_3D( '', #167, #168, #169 );
#143 = EDGE_LOOP( '', ( #170, #171, #172, #173, #174, #175, #176, #177 ) );
#144 = AXIS2_PLACEMENT_3D( '', #178, #179, #180 );
#145 = ORIENTED_EDGE( '', *, *, #181, .T. );
#146 = ORIENTED_EDGE( '', *, *, #182, .T. );
#147 = ORIENTED_EDGE( '', *, *, #183, .T. );
#148 = ORIENTED_EDGE( '', *, *, #184, .T. );
#149 = ORIENTED_EDGE( '', *, *, #185, .T. );
#150 = ORIENTED_EDGE( '', *, *, #186, .T. );
#151 = ORIENTED_EDGE( '', *, *, #187, .T. );
#152 = ORIENTED_EDGE( '', *, *, #188, .T. );
#153 = ORIENTED_EDGE( '', *, *, #189, .T. );
#154 = ORIENTED_EDGE( '', *, *, #190, .T. );
#155 = ORIENTED_EDGE( '', *, *, #191, .T. );
#156 = CARTESIAN_POINT( '', ( 0.00000000000000, 0.00000000000000, -0.00000000000000 ) );
#157 = DIRECTION( '', ( 0.00000000000000, 0.00000000000000, -1.00000000000000 ) );
#158 = DIRECTION( '', ( -1.00000000000000, 0.00000000000000, 0.00000000000000 ) );
#159 = ORIENTED_EDGE( '', *, *, #192, .T. );
#160 = ORIENTED_EDGE( '', *, *, #193, .T. );
#161 = ORIENTED_EDGE( '', *, *, #194, .T. );
#162 = ORIENTED_EDGE( '', *, *, #195, .T. );
#163 = ORIENTED_EDGE( '', *, *, #196, .T. );
#164 = ORIENTED_EDGE( '', *, *, #197, .T. );
#165 = ORIENTED_EDGE( '', *, *, #198, .T. );
#166 = ORIENTED_EDGE( '', *, *, #199, .T. );
#167 = CARTESIAN_POINT( '', ( -0.00000000000000, 0.00000000000000, 0.00000000000000 ) );
#168 = DIRECTION( '', ( -0.00000000000000, 0.00000000000000, 1.00000000000000 ) );
#169 = DIRECTION( '', ( 1.00000000000000, 0.00000000000000, 0.00000000000000 ) );
#170 = ORIENTED_EDGE( '', *, *, #200, .T. );
#171 = ORIENTED_EDGE( '', *, *, #201, .T. );
#172 = ORIENTED_EDGE( '', *, *, #202, .T. );
#173 = ORIENTED_EDGE( '', *, *, #203, .T. );
#174 = ORIENTED_EDGE( '', *, *, #204, .T. );
#175 = ORIENTED_EDGE( '', *, *, #205, .T. );
#176 = ORIENTED_EDGE( '', *, *, #206, .T. );
#177 = ORIENTED_EDGE( '', *, *, #207, .T. );
#178 = CARTESIAN_POINT( '', ( -0.00000000000000, 0.00000000000000, 0.00000000000000 ) );
#179 = DIRECTION( '', ( -0.00000000000000, 0.00000000000000, 1.00000000000000 ) );
#180 = DIRECTION( '', ( 1.00000000000000, 0.00000000000000, 0.00000000000000 ) );
#181 = EDGE_CURVE( '', #208, #209, #210, .F. );
#182 = EDGE_CURVE( '', #209, #211, #212, .F. );
#183 = EDGE_CURVE( '', #211, #213, #214, .F. );
#184 = EDGE_CURVE( '', #213, #215, #216, .F. );
#185 = EDGE_CURVE( '', #215, #217, #218, .F. );
#186 = EDGE_CURVE( '', #217, #219, #220, .F. );
#187 = EDGE_CURVE( '', #219, #221, #222, .F. );
#188 = EDGE_CURVE( '', #221, #223, #224, .F. );
#189 = EDGE_CURVE( '', #223, #225, #226, .F. );
#190 = EDGE_CURVE( '', #225, #227, #228, .F. );
#191 = EDGE_CURVE( '', #227, #208, #229, .F. );
#192 = EDGE_CURVE( '', #230, #231, #232, .T. );
#193 = EDGE_CURVE( '', #231, #233, #234, .T. );
#194 = EDGE_CURVE( '', #233, #235, #236, .F. );
#195 = EDGE_CURVE( '', #235, #237, #238, .F. );
#196 = EDGE_CURVE( '', #237, #239, #240, .F. );
#197 = EDGE_CURVE( '', #239, #241, #242, .F. );
#198 = EDGE_CURVE( '', #241, #243, #244, .T. );
#199 = EDGE_CURVE( '', #243, #230, #245, .T. );
#200 = EDGE_CURVE( '', #246, #247, #248, .T. );
#201 = EDGE_CURVE( '', #247, #249, #250, .T. );
#202 = EDGE_CURVE( '', #249, #251, #252, .F. );
#203 = EDGE_CURVE( '', #251, #253, #254, .F. );
#204 = EDGE_CURVE( '', #253, #255, #256, .F. );
#205 = EDGE_CURVE( '', #255, #257, #258, .F. );
#206 = EDGE_CURVE( '', #257, #259, #260, .T. );
#207 = EDGE_CURVE( '', #259, #246, #261, .T. );
#208 = VERTEX_POINT( '', #262 );
#209 = VERTEX_POINT( '', #263 );
#210 = LINE( '', #264, #265 );
#211 = VERTEX_POINT( '', #266 );
#212 = LINE( '', #267, #268 );
#213 = VERTEX_POINT( '', #269 );
#214 = LINE( '', #270, #271 );
#215 = VERTEX_POINT( '', #272 );
#216 = LINE( '', #273, #274 );
#217 = VERTEX_POINT( '', #275 );
#218 = LINE( '', #276, #277 );
#219 = VERTEX_POINT( '', #278 );
#220 = LINE( '', #279, #280 );
#221 = VERTEX_POINT( '', #281 );
#222 = LINE( '', #282, #283 );
#223 = VERTEX_POINT( '', #284 );
#224 = LINE( '', #285, #286 );
#225 = VERTEX_POINT( '', #287 );
#226 = LINE( '', #288, #289 );
#227 = VERTEX_POINT( '', #290 );
#228 = LINE( '', #291, #292 );
#229 = LINE( '', #293, #294 );
#230 = VERTEX_POINT( '', #295 );
#231 = VERTEX_POINT( '', #296 );
#232 = LINE( '', #297, #298 );
#233 = VERTEX_POINT( '', #299 );
#234 = LINE( '', #300, #301 );
#235 = VERTEX_POINT( '', #302 );
#236 = LINE( '', #303, #304 );
#237 = VERTEX_POINT( '', #305 );
#238 = LINE( '', #306, #307 );
#239 = VERTEX_POINT( '', #308 );
#240 = LINE( '', #309, #310 );
#241 = VERTEX_POINT( '', #311 );
#242 = LINE( '', #312, #313 );
#243 = VERTEX_POINT( '', #314 );
#244 = LINE( '', #315, #316 );
#245 = LINE( '', #317, #318 );
#246 = VERTEX_POINT( '', #319 );
#247 = VERTEX_POINT( '', #320 );
#248 = LINE( '', #321, #322 );
#249 = VERTEX_POINT( '', #323 );
#250 = LINE( '', #324, #325 );
#251 = VERTEX_POINT( '', #326 );
#252 = LINE( '', #327, #328 );
#253 = VERTEX_POINT( '', #329 );
#254 = LINE( '', #330, #331 );
#255 = VERTEX_POINT( '', #332 );
#256 = LINE( '', #333, #334 );
#257 = VERTEX_POINT( '', #335 );
#258 = LINE( '', #336, #337 );
#259 = VERTEX_POINT( '', #338 );
#260 = LINE( '', #339, #340 );
#261 = LINE( '', #341, #342 );
#262 = CARTESIAN_POINT( '', ( -0.0200000000000000, 0.00000000000000, 0.00000000000000 ) );
#263 = CARTESIAN_POINT( '', ( 1.10000000000000, 0.00000000000000, 0.00000000000000 ) );
#264 = CARTESIAN_POINT( '', ( 1.10000000000000, 0.00000000000000, 0.00000000000000 ) );
#265 = VECTOR( '', #343, 1.00000000000000 );
#266 = CARTESIAN_POINT( '', ( 1.10000000000000, 0.0569000000000000, 0.00000000000000 ) );
#267 = CARTESIAN_POINT( '', ( 1.10000000000000, 0.0569000000000000, 0.00000000000000 ) );
#268 = VECTOR( '', #344, 1.00000000000000 );
#269 = CARTESIAN_POINT( '', ( 0.728000000000000, 0.200000000000000, 0.00000000000000 ) );
#270 = CARTESIAN_POINT( '', ( 0.728000000000000, 0.200000000000000, 0.00000000000000 ) );
#271 = VECTOR( '', #345, 1.00000000000000 );
#272 = CARTESIAN_POINT( '', ( -9.68278206659335E-34, 0.200000000000000, 0.00000000000000 ) );
#273 = CARTESIAN_POINT( '', ( -9.68278206659335E-34, 0.200000000000000, 0.00000000000000 ) );
#274 = VECTOR( '', #346, 1.00000000000000 );
#275 = CARTESIAN_POINT( '', ( 0.00000000000000, 0.0501600000000000, 0.00000000000000 ) );
#276 = CARTESIAN_POINT( '', ( 0.00000000000000, 0.0501600000000000, 0.00000000000000 ) );
#277 = VECTOR( '', #347, 1.00000000000000 );
#278 = CARTESIAN_POINT( '', ( -0.00200000000000000, 0.0501600000000000, 0.00000000000000 ) );
#279 = CARTESIAN_POINT( '', ( -0.00200000000000000, 0.0501600000000000, 0.00000000000000 ) );
#280 = VECTOR( '', #348, 1.00000000000000 );
#281 = CARTESIAN_POINT( '', ( -0.00200000000000000, 0.0500000000000000, 0.00000000000000 ) );
#282 = CARTESIAN_POINT( '', ( -0.00200000000000000, 0.0500000000000000, 0.00000000000000 ) );
#283 = VECTOR( '', #349, 1.00000000000000 );
#284 = CARTESIAN_POINT( '', ( 0.00000000000000, 0.0500000000000000, 0.00000000000000 ) );
#285 = CARTESIAN_POINT( '', ( 0.00000000000000, 0.0500000000000000, 0.00000000000000 ) );
#286 = VECTOR( '', #350, 1.00000000000000 );
#287 = CARTESIAN_POINT( '', ( 0.00000000000000, 0.0195000000000000, 0.00000000000000 ) );
#288 = CARTESIAN_POINT( '', ( 0.00000000000000, 0.0195000000000000, 0.00000000000000 ) );
#289 = VECTOR( '', #351, 1.00000000000000 );
#290 = CARTESIAN_POINT( '', ( -0.0200000000000000, 0.0195000000000000, 0.00000000000000 ) );
#291 = CARTESIAN_POINT( '', ( -0.0200000000000000, 0.0195000000000000, 0.00000000000000 ) );
#292 = VECTOR( '', #352, 1.00000000000000 );
#293 = CARTESIAN_POINT( '', ( -0.0200000000000000, 0.00000000000000, 0.00000000000000 ) );
#294 = VECTOR( '', #353, 1.00000000000000 );
#295 = CARTESIAN_POINT( '', ( 1.10000000000000, 0.0569000000000000, 0.00000000000000 ) );
#296 = CARTESIAN_POINT( '', ( 1.10000000000000, 0.00000000000000, 0.00000000000000 ) );
#297 = CARTESIAN_POINT( '', ( 1.10000000000000, 0.0569000000000000, 0.00000000000000 ) );
#298 = VECTOR( '', #354, 1.00000000000000 );
#299 = CARTESIAN_POINT( '', ( 1.10500000000000, 0.00000000000000, 0.00000000000000 ) );
#300 = CARTESIAN_POINT( '', ( 1.10000000000000, 0.00000000000000, 0.00000000000000 ) );
#301 = VECTOR( '', #355, 1.00000000000000 );
#302 = CARTESIAN_POINT( '', ( 1.10500000000000, 0.0603337966712178, 0.00000000000000 ) );
#303 = CARTESIAN_POINT( '', ( 1.10500000000000, 0.0603337966712178, 0.00000000000000 ) );
#304 = VECTOR( '', #356, 1.00000000000000 );
#305 = CARTESIAN_POINT( '', ( 0.728928528034193, 0.205000000000000, 0.00000000000000 ) );
#306 = CARTESIAN_POINT( '', ( 0.728928528034193, 0.205000000000000, 0.00000000000000 ) );
#307 = VECTOR( '', #357, 1.00000000000000 );
#308 = CARTESIAN_POINT( '', ( 0.00000000000000, 0.205000000000000, 0.00000000000000 ) );
#309 = CARTESIAN_POINT( '', ( 0.00000000000000, 0.205000000000000, 0.00000000000000 ) );
#310 = VECTOR( '', #358, 1.00000000000000 );
#311 = CARTESIAN_POINT( '', ( -9.68278206659335E-34, 0.200000000000000, 0.00000000000000 ) );
#312 = CARTESIAN_POINT( '', ( -9.68278206659335E-34, 0.200000000000000, 0.00000000000000 ) );
#313 = VECTOR( '', #359, 1.00000000000000 );
#314 = CARTESIAN_POINT( '', ( 0.728000000000000, 0.200000000000000, 0.00000000000000 ) );
#315 = CARTESIAN_POINT( '', ( -9.68278206659335E-34, 0.200000000000000, 0.00000000000000 ) );
#316 = VECTOR( '', #360, 1.00000000000000 );
#317 = CARTESIAN_POINT( '', ( 0.728000000000000, 0.200000000000000, 0.00000000000000 ) );
#318 = VECTOR( '', #361, 1.00000000000000 );
#319 = CARTESIAN_POINT( '', ( 1.10500000000000, 0.0603337966712179, 0.00000000000000 ) );
#320 = CARTESIAN_POINT( '', ( 1.10500000000000, 0.00000000000000, 0.00000000000000 ) );
#321 = CARTESIAN_POINT( '', ( 1.10500000000000, 0.0603337966712178, 0.00000000000000 ) );
#322 = VECTOR( '', #362, 1.00000000000000 );
#323 = CARTESIAN_POINT( '', ( 1.13500000000000, 0.00000000000000, 0.00000000000000 ) );
#324 = CARTESIAN_POINT( '', ( 1.10500000000000, 0.00000000000000, 0.00000000000000 ) );
#325 = VECTOR( '', #363, 1.00000000000000 );
#326 = CARTESIAN_POINT( '', ( 1.13500000000000, 0.0809365766985250, 0.00000000000000 ) );
#327 = CARTESIAN_POINT( '', ( 1.13500000000000, 0.0809365766985250, 0.00000000000000 ) );
#328 = VECTOR( '', #364, 1.00000000000000 );
#329 = CARTESIAN_POINT( '', ( 0.734499696239352, 0.235000000000000, 0.00000000000000 ) );
#330 = CARTESIAN_POINT( '', ( 0.734499696239352, 0.235000000000000, 0.00000000000000 ) );
#331 = VECTOR( '', #365, 1.00000000000000 );
#332 = CARTESIAN_POINT( '', ( 0.00000000000000, 0.235000000000000, 0.00000000000000 ) );
#333 = CARTESIAN_POINT( '', ( 0.00000000000000, 0.235000000000000, 0.00000000000000 ) );
#334 = VECTOR( '', #366, 1.00000000000000 );
#335 = CARTESIAN_POINT( '', ( 0.00000000000000, 0.205000000000000, 0.00000000000000 ) );
#336 = CARTESIAN_POINT( '', ( 0.00000000000000, 0.205000000000000, 0.00000000000000 ) );
#337 = VECTOR( '', #367, 1.00000000000000 );
#338 = CARTESIAN_POINT( '', ( 0.728928528034193, 0.205000000000000, 0.00000000000000 ) );
#339 = CARTESIAN_POINT( '', ( 0.00000000000000, 0.205000000000000, 0.00000000000000 ) );
#340 = VECTOR( '', #368, 1.00000000000000 );
#341 = CARTESIAN_POINT( '', ( 0.728928528034193, 0.205000000000000, 0.00000000000000 ) );
#342 = VECTOR( '', #369, 1.00000000000000 );
#343 = DIRECTION( '', ( -1.00000000000000, 0.00000000000000, 0.00000000000000 ) );
#344 = DIRECTION( '', ( 0.00000000000000, -1.00000000000000, 0.00000000000000 ) );
#345 = DIRECTION( '', ( 0.933326205808706, -0.359029516266735, 0.00000000000000 ) );
#346 = DIRECTION( '', ( 1.00000000000000, -4.57509488169707E-16, 0.00000000000000 ) );
#347 = DIRECTION( '', ( -6.46208093072166E-33, 1.00000000000000, 0.00000000000000 ) );
#348 = DIRECTION( '', ( 1.00000000000000, 0.00000000000000, 0.00000000000000 ) );
#349 = DIRECTION( '', ( 0.00000000000000, 1.00000000000000, 0.00000000000000 ) );
#350 = DIRECTION( '', ( -1.00000000000000, 0.00000000000000, 0.00000000000000 ) );
#351 = DIRECTION( '', ( 0.00000000000000, 1.00000000000000, 0.00000000000000 ) );
#352 = DIRECTION( '', ( 1.00000000000000, 0.00000000000000, 0.00000000000000 ) );
#353 = DIRECTION( '', ( 0.00000000000000, 1.00000000000000, 0.00000000000000 ) );
#354 = DIRECTION( '', ( 0.00000000000000, -1.00000000000000, 0.00000000000000 ) );
#355 = DIRECTION( '', ( 1.00000000000000, 0.00000000000000, 0.00000000000000 ) );
#356 = DIRECTION( '', ( 0.00000000000000, -1.00000000000000, 0.00000000000000 ) );
#357 = DIRECTION( '', ( 0.933326205808706, -0.359029516266735, 0.00000000000000 ) );
#358 = DIRECTION( '', ( 1.00000000000000, 0.00000000000000, 0.00000000000000 ) );
#359 = DIRECTION( '', ( 1.93655641331880E-31, 1.00000000000000, 0.00000000000000 ) );
#360 = DIRECTION( '', ( 1.00000000000000, -4.57509488169707E-16, 0.00000000000000 ) );
#361 = DIRECTION( '', ( 0.933326205808706, -0.359029516266735, 0.00000000000000 ) );
#362 = DIRECTION( '', ( 0.00000000000000, -1.00000000000000, 0.00000000000000 ) );
#363 = DIRECTION( '', ( 1.00000000000000, 0.00000000000000, 0.00000000000000 ) );
#364 = DIRECTION( '', ( 0.00000000000000, -1.00000000000000, 0.00000000000000 ) );
#365 = DIRECTION( '', ( 0.933326205808706, -0.359029516266735, 0.00000000000000 ) );
#366 = DIRECTION( '', ( 1.00000000000000, 3.77884099309201E-17, 0.00000000000000 ) );
#367 = DIRECTION( '', ( 0.00000000000000, 1.00000000000000, 0.00000000000000 ) );
#368 = DIRECTION( '', ( 1.00000000000000, 0.00000000000000, 0.00000000000000 ) );
#369 = DIRECTION( '', ( 0.933326205808706, -0.359029516266735, 0.00000000000000 ) );
ENDSEC;
END-ISO-10303-21;
