ISO-10303-21;
HEADER;
FILE_DESCRIPTION( ( 'STEP Version 203' ), '1' );
FILE_NAME( 'H:/6/1/\X2\4EA754C14E09\X0\.stp', '04/27/26 20:48:48', ( 'liuti' ), ( '  ' ), 'PSStep 21.0.47', 'DesignModeler STEP Output', '  ' );
FILE_SCHEMA( ( 'CONFIG_CONTROL_DESIGN' ) );
ENDSEC;
DATA;
#1 = DESIGN_CONTEXT( '', #51, 'design' );
#2 = APPLICATION_PROTOCOL_DEFINITION( 'international standard', 'config_control_design', 1994, #51 );
#3 = PRODUCT_CATEGORY_RELATIONSHIP( 'NONE', 'NONE', #52, #53 );
#4 = DATE_AND_TIME( #54, #55 );
#5 = DATE_TIME_ROLE( 'creation_date' );
#6 = DATE_TIME_ROLE( 'classification_date' );
#7 = PERSON_AND_ORGANIZATION_ROLE( 'creator' );
#8 = PERSON_AND_ORGANIZATION_ROLE( 'design_supplier' );
#9 = PERSON_AND_ORGANIZATION_ROLE( 'classification_officer' );
#10 = PERSON_AND_ORGANIZATION_ROLE( 'design_owner' );
#11 = APPROVAL_PERSON_ORGANIZATION( #56, #57, #58 );
#12 = APPROVAL_DATE_TIME( #4, #57 );
#13 = CC_DESIGN_APPROVAL( #57, ( #59, #60, #61 ) );
#14 = CC_DESIGN_DATE_AND_TIME_ASSIGNMENT( #4, #5, ( #61 ) );
#15 = CC_DESIGN_DATE_AND_TIME_ASSIGNMENT( #4, #6, ( #59 ) );
#16 = CC_DESIGN_PERSON_AND_ORGANIZATION_ASSIGNMENT( #56, #10, ( #62 ) );
#17 = CC_DESIGN_PERSON_AND_ORGANIZATION_ASSIGNMENT( #56, #7, ( #61 ) );
#18 = CC_DESIGN_PERSON_AND_ORGANIZATION_ASSIGNMENT( #56, #7, ( #60 ) );
#19 = CC_DESIGN_PERSON_AND_ORGANIZATION_ASSIGNMENT( #56, #8, ( #60 ) );
#20 = CC_DESIGN_SECURITY_CLASSIFICATION( #59, ( #60 ) );
#21 = CC_DESIGN_PERSON_AND_ORGANIZATION_ASSIGNMENT( #56, #9, ( #59 ) );
#22 = SHAPE_DEFINITION_REPRESENTATION( #63, #64 );
#23 = PRODUCT_CATEGORY_RELATIONSHIP( 'NONE', 'NONE', #52, #65 );
#24 = DATE_AND_TIME( #66, #67 );
#25 = APPROVAL_DATE_TIME( #24, #57 );
#26 = CC_DESIGN_APPROVAL( #57, ( #59, #68, #69 ) );
#27 = CC_DESIGN_DATE_AND_TIME_ASSIGNMENT( #24, #5, ( #69 ) );
#28 = CC_DESIGN_DATE_AND_TIME_ASSIGNMENT( #24, #6, ( #59 ) );
#29 = CC_DESIGN_PERSON_AND_ORGANIZATION_ASSIGNMENT( #56, #10, ( #70 ) );
#30 = CC_DESIGN_PERSON_AND_ORGANIZATION_ASSIGNMENT( #56, #7, ( #69 ) );
#31 = CC_DESIGN_PERSON_AND_ORGANIZATION_ASSIGNMENT( #56, #7, ( #68 ) );
#32 = CC_DESIGN_PERSON_AND_ORGANIZATION_ASSIGNMENT( #56, #8, ( #68 ) );
#33 = CC_DESIGN_SECURITY_CLASSIFICATION( #59, ( #68 ) );
#34 = SHAPE_DEFINITION_REPRESENTATION( #71, #72 );
#35 = PRODUCT_CATEGORY_RELATIONSHIP( 'NONE', 'NONE', #52, #73 );
#36 = DATE_AND_TIME( #74, #75 );
#37 = APPROVAL_DATE_TIME( #36, #57 );
#38 = CC_DESIGN_APPROVAL( #57, ( #59, #76, #77 ) );
#39 = CC_DESIGN_DATE_AND_TIME_ASSIGNMENT( #36, #5, ( #77 ) );
#40 = CC_DESIGN_DATE_AND_TIME_ASSIGNMENT( #36, #6, ( #59 ) );
#41 = CC_DESIGN_PERSON_AND_ORGANIZATION_ASSIGNMENT( #56, #10, ( #78 ) );
#42 = CC_DESIGN_PERSON_AND_ORGANIZATION_ASSIGNMENT( #56, #7, ( #77 ) );
#43 = CC_DESIGN_PERSON_AND_ORGANIZATION_ASSIGNMENT( #56, #7, ( #76 ) );
#44 = CC_DESIGN_PERSON_AND_ORGANIZATION_ASSIGNMENT( #56, #8, ( #76 ) );
#45 = CC_DESIGN_SECURITY_CLASSIFICATION( #59, ( #76 ) );
#46 = SHAPE_DEFINITION_REPRESENTATION( #79, #80 );
#47 =  ( GEOMETRIC_REPRESENTATION_CONTEXT( 3 )GLOBAL_UNCERTAINTY_ASSIGNED_CONTEXT( ( #83 ) )GLOBAL_UNIT_ASSIGNED_CONTEXT( ( #85, #86, #87 ) )REPRESENTATION_CONTEXT( 'NONE', 'WORKSPACE' ) );
#51 = APPLICATION_CONTEXT( 'configuration controlled 3D designs of mechanical parts and assemblies' );
#52 = PRODUCT_CATEGORY( 'part', 'NONE' );
#53 = PRODUCT_RELATED_PRODUCT_CATEGORY( 'detail', ' ', ( #62 ) );
#54 = CALENDAR_DATE( 2026, 27, 3 );
#55 = LOCAL_TIME( 20, 48, 48.0000000000000, #89 );
#56 = PERSON_AND_ORGANIZATION( #90, #91 );
#57 = APPROVAL( #92, 'SOLID MODEL' );
#58 = APPROVAL_ROLE( 'APPROVED' );
#59 = SECURITY_CLASSIFICATION( '', '', #93 );
#60 = PRODUCT_DEFINITION_FORMATION_WITH_SPECIFIED_SOURCE( ' ', 'NONE', #62, .NOT_KNOWN. );
#61 = PRODUCT_DEFINITION( 'NONE', 'NONE', #60, #1 );
#62 = PRODUCT( '1', '1', 'PART-1-DESC', ( #94 ) );
#63 = PRODUCT_DEFINITION_SHAPE( 'NONE', 'NONE', #61 );
#64 = MANIFOLD_SURFACE_SHAPE_REPRESENTATION( '1', ( #95, #96 ), #47 );
#65 = PRODUCT_RELATED_PRODUCT_CATEGORY( 'detail', ' ', ( #70 ) );
#66 = CALENDAR_DATE( 2026, 27, 3 );
#67 = LOCAL_TIME( 20, 48, 48.0000000000000, #97 );
#68 = PRODUCT_DEFINITION_FORMATION_WITH_SPECIFIED_SOURCE( ' ', 'NONE', #70, .NOT_KNOWN. );
#69 = PRODUCT_DEFINITION( 'NONE', 'NONE', #68, #1 );
#70 = PRODUCT( '2', '2', 'PART-2-DESC', ( #94 ) );
#71 = PRODUCT_DEFINITION_SHAPE( 'NONE', 'NONE', #69 );
#72 = MANIFOLD_SURFACE_SHAPE_REPRESENTATION( '2', ( #98, #99 ), #47 );
#73 = PRODUCT_RELATED_PRODUCT_CATEGORY( 'detail', ' ', ( #78 ) );
#74 = CALENDAR_DATE( 2026, 27, 3 );
#75 = LOCAL_TIME( 20, 48, 48.0000000000000, #100 );
#76 = PRODUCT_DEFINITION_FORMATION_WITH_SPECIFIED_SOURCE( ' ', 'NONE', #78, .NOT_KNOWN. );
#77 = PRODUCT_DEFINITION( 'NONE', 'NONE', #76, #1 );
#78 = PRODUCT( '3', '3', 'PART-3-DESC', ( #94 ) );
#79 = PRODUCT_DEFINITION_SHAPE( 'NONE', 'NONE', #77 );
#80 = MANIFOLD_SURFACE_SHAPE_REPRESENTATION( '3', ( #101, #102 ), #47 );
#83 = UNCERTAINTY_MEASURE_WITH_UNIT( LENGTH_MEASURE( 1.00000000000000E-06 ), #85, '', '' );
#85 =  ( CONVERSION_BASED_UNIT( 'METRE', #105 )LENGTH_UNIT(  )NAMED_UNIT( #108 ) );
#86 =  ( NAMED_UNIT( #110 )PLANE_ANGLE_UNIT(  )SI_UNIT( $, .RADIAN. ) );
#87 =  ( NAMED_UNIT( #110 )SI_UNIT( $, .STERADIAN. )SOLID_ANGLE_UNIT(  ) );
#89 = COORDINATED_UNIVERSAL_TIME_OFFSET( 8, 0, .AHEAD. );
#90 = PERSON( '', 'UNSPECIFIED', $, $, $, $ );
#91 = ORGANIZATION( 'UNSPECIFIED', 'UNSPECIFIED', 'UNSPECIFIED' );
#92 = APPROVAL_STATUS( 'approved' );
#93 = SECURITY_CLASSIFICATION_LEVEL( 'unclassified' );
#94 = MECHANICAL_CONTEXT( '', #51, 'mechanical' );
#95 = SHELL_BASED_SURFACE_MODEL( '1', ( #116 ) );
#96 = AXIS2_PLACEMENT_3D( '', #117, #118, #119 );
#97 = COORDINATED_UNIVERSAL_TIME_OFFSET( 8, 0, .AHEAD. );
#98 = SHELL_BASED_SURFACE_MODEL( '2', ( #120 ) );
#99 = AXIS2_PLACEMENT_3D( '', #121, #122, #123 );
#100 = COORDINATED_UNIVERSAL_TIME_OFFSET( 8, 0, .AHEAD. );
#101 = SHELL_BASED_SURFACE_MODEL( '3', ( #124 ) );
#102 = AXIS2_PLACEMENT_3D( '', #125, #126, #127 );
#105 = LENGTH_MEASURE_WITH_UNIT( LENGTH_MEASURE( 1.00000000000000 ), #128 );
#108 = DIMENSIONAL_EXPONENTS( 1.00000000000000, 0.00000000000000, 0.00000000000000, 0.00000000000000, 0.00000000000000, 0.00000000000000, 0.00000000000000 );
#110 = DIMENSIONAL_EXPONENTS( 0.00000000000000, 0.00000000000000, 0.00000000000000, 0.00000000000000, 0.00000000000000, 0.00000000000000, 0.00000000000000 );
#116 = CLOSED_SHELL( '', ( #129 ) );
#117 = CARTESIAN_POINT( '', ( 0.00000000000000, 0.00000000000000, 0.00000000000000 ) );
#118 = DIRECTION( '', ( 0.00000000000000, 0.00000000000000, 1.00000000000000 ) );
#119 = DIRECTION( '', ( 1.00000000000000, 0.00000000000000, 0.00000000000000 ) );
#120 = CLOSED_SHELL( '', ( #130 ) );
#121 = CARTESIAN_POINT( '', ( 0.00000000000000, 0.00000000000000, 0.00000000000000 ) );
#122 = DIRECTION( '', ( 0.00000000000000, 0.00000000000000, 1.00000000000000 ) );
#123 = DIRECTION( '', ( 1.00000000000000, 0.00000000000000, 0.00000000000000 ) );
#124 = CLOSED_SHELL( '', ( #131 ) );
#125 = CARTESIAN_POINT( '', ( 0.00000000000000, 0.00000000000000, 0.00000000000000 ) );
#126 = DIRECTION( '', ( 0.00000000000000, 0.00000000000000, 1.00000000000000 ) );
#127 = DIRECTION( '', ( 1.00000000000000, 0.00000000000000, 0.00000000000000 ) );
#128 =  ( LENGTH_UNIT(  )NAMED_UNIT( #108 )SI_UNIT( $, .METRE. ) );
#129 = FACE_SURFACE( '', ( #133 ), #134, .F. );
#130 = FACE_SURFACE( '', ( #135 ), #136, .T. );
#131 = FACE_SURFACE( '', ( #137 ), #138, .T. );
#133 = FACE_BOUND( '', #139, .T. );
#134 = PLANE( '', #140 );
#135 = FACE_BOUND( '', #141, .T. );
#136 = PLANE( '', #142 );
#137 = FACE_BOUND( '', #143, .T. );
#138 = PLANE( '', #144 );
#139 = EDGE_LOOP( '', ( #145, #146, #147, #148, #149, #150, #151, #152, #153, #154 ) );
#140 = AXIS2_PLACEMENT_3D( '', #155, #156, #157 );
#141 = EDGE_LOOP( '', ( #158, #159, #160, #161, #162, #163 ) );
#142 = AXIS2_PLACEMENT_3D( '', #164, #165, #166 );
#143 = EDGE_LOOP( '', ( #167, #168, #169, #170, #171, #172 ) );
#144 = AXIS2_PLACEMENT_3D( '', #173, #174, #175 );
#145 = ORIENTED_EDGE( '', *, *, #176, .T. );
#146 = ORIENTED_EDGE( '', *, *, #177, .T. );
#147 = ORIENTED_EDGE( '', *, *, #178, .T. );
#148 = ORIENTED_EDGE( '', *, *, #179, .T. );
#149 = ORIENTED_EDGE( '', *, *, #180, .T. );
#150 = ORIENTED_EDGE( '', *, *, #181, .T. );
#151 = ORIENTED_EDGE( '', *, *, #182, .T. );
#152 = ORIENTED_EDGE( '', *, *, #183, .T. );
#153 = ORIENTED_EDGE( '', *, *, #184, .T. );
#154 = ORIENTED_EDGE( '', *, *, #185, .T. );
#155 = CARTESIAN_POINT( '', ( 0.00000000000000, 0.00000000000000, -0.00000000000000 ) );
#156 = DIRECTION( '', ( 0.00000000000000, 0.00000000000000, -1.00000000000000 ) );
#157 = DIRECTION( '', ( -1.00000000000000, 0.00000000000000, 0.00000000000000 ) );
#158 = ORIENTED_EDGE( '', *, *, #186, .T. );
#159 = ORIENTED_EDGE( '', *, *, #187, .T. );
#160 = ORIENTED_EDGE( '', *, *, #188, .T. );
#161 = ORIENTED_EDGE( '', *, *, #189, .T. );
#162 = ORIENTED_EDGE( '', *, *, #190, .T. );
#163 = ORIENTED_EDGE( '', *, *, #191, .T. );
#164 = CARTESIAN_POINT( '', ( -0.00000000000000, 0.00000000000000, 0.00000000000000 ) );
#165 = DIRECTION( '', ( -0.00000000000000, 0.00000000000000, 1.00000000000000 ) );
#166 = DIRECTION( '', ( 1.00000000000000, 0.00000000000000, 0.00000000000000 ) );
#167 = ORIENTED_EDGE( '', *, *, #192, .T. );
#168 = ORIENTED_EDGE( '', *, *, #193, .T. );
#169 = ORIENTED_EDGE( '', *, *, #194, .T. );
#170 = ORIENTED_EDGE( '', *, *, #195, .T. );
#171 = ORIENTED_EDGE( '', *, *, #196, .T. );
#172 = ORIENTED_EDGE( '', *, *, #197, .T. );
#173 = CARTESIAN_POINT( '', ( -0.00000000000000, 0.00000000000000, 0.00000000000000 ) );
#174 = DIRECTION( '', ( -0.00000000000000, 0.00000000000000, 1.00000000000000 ) );
#175 = DIRECTION( '', ( 1.00000000000000, 0.00000000000000, 0.00000000000000 ) );
#176 = EDGE_CURVE( '', #198, #199, #200, .F. );
#177 = EDGE_CURVE( '', #199, #201, #202, .F. );
#178 = EDGE_CURVE( '', #201, #203, #204, .F. );
#179 = EDGE_CURVE( '', #203, #205, #206, .F. );
#180 = EDGE_CURVE( '', #205, #207, #208, .F. );
#181 = EDGE_CURVE( '', #207, #209, #210, .F. );
#182 = EDGE_CURVE( '', #209, #211, #212, .F. );
#183 = EDGE_CURVE( '', #211, #213, #214, .F. );
#184 = EDGE_CURVE( '', #213, #215, #216, .F. );
#185 = EDGE_CURVE( '', #215, #198, #217, .F. );
#186 = EDGE_CURVE( '', #218, #219, #220, .T. );
#187 = EDGE_CURVE( '', #219, #221, #222, .T. );
#188 = EDGE_CURVE( '', #221, #223, #224, .F. );
#189 = EDGE_CURVE( '', #223, #225, #226, .F. );
#190 = EDGE_CURVE( '', #225, #227, #228, .F. );
#191 = EDGE_CURVE( '', #227, #218, #229, .T. );
#192 = EDGE_CURVE( '', #230, #231, #232, .T. );
#193 = EDGE_CURVE( '', #231, #233, #234, .T. );
#194 = EDGE_CURVE( '', #233, #235, #236, .F. );
#195 = EDGE_CURVE( '', #235, #237, #238, .F. );
#196 = EDGE_CURVE( '', #237, #239, #240, .F. );
#197 = EDGE_CURVE( '', #239, #230, #241, .T. );
#198 = VERTEX_POINT( '', #242 );
#199 = VERTEX_POINT( '', #243 );
#200 = LINE( '', #244, #245 );
#201 = VERTEX_POINT( '', #246 );
#202 = LINE( '', #247, #248 );
#203 = VERTEX_POINT( '', #249 );
#204 = LINE( '', #250, #251 );
#205 = VERTEX_POINT( '', #252 );
#206 = LINE( '', #253, #254 );
#207 = VERTEX_POINT( '', #255 );
#208 = LINE( '', #256, #257 );
#209 = VERTEX_POINT( '', #258 );
#210 = LINE( '', #259, #260 );
#211 = VERTEX_POINT( '', #261 );
#212 = LINE( '', #262, #263 );
#213 = VERTEX_POINT( '', #264 );
#214 = LINE( '', #265, #266 );
#215 = VERTEX_POINT( '', #267 );
#216 = LINE( '', #268, #269 );
#217 = LINE( '', #270, #271 );
#218 = VERTEX_POINT( '', #272 );
#219 = VERTEX_POINT( '', #273 );
#220 = LINE( '', #274, #275 );
#221 = VERTEX_POINT( '', #276 );
#222 = LINE( '', #277, #278 );
#223 = VERTEX_POINT( '', #279 );
#224 = LINE( '', #280, #281 );
#225 = VERTEX_POINT( '', #282 );
#226 = LINE( '', #283, #284 );
#227 = VERTEX_POINT( '', #285 );
#228 = LINE( '', #286, #287 );
#229 = LINE( '', #288, #289 );
#230 = VERTEX_POINT( '', #290 );
#231 = VERTEX_POINT( '', #291 );
#232 = LINE( '', #292, #293 );
#233 = VERTEX_POINT( '', #294 );
#234 = LINE( '', #295, #296 );
#235 = VERTEX_POINT( '', #297 );
#236 = LINE( '', #298, #299 );
#237 = VERTEX_POINT( '', #300 );
#238 = LINE( '', #301, #302 );
#239 = VERTEX_POINT( '', #303 );
#240 = LINE( '', #304, #305 );
#241 = LINE( '', #306, #307 );
#242 = CARTESIAN_POINT( '', ( -0.0200000000000000, 0.00000000000000, 0.00000000000000 ) );
#243 = CARTESIAN_POINT( '', ( 0.910000000000000, 0.00000000000000, 0.00000000000000 ) );
#244 = CARTESIAN_POINT( '', ( 0.910000000000000, 0.00000000000000, 0.00000000000000 ) );
#245 = VECTOR( '', #308, 1.00000000000000 );
#246 = CARTESIAN_POINT( '', ( 0.910000000000000, 0.165000000000000, 0.00000000000000 ) );
#247 = CARTESIAN_POINT( '', ( 0.910000000000000, 0.165000000000000, 0.00000000000000 ) );
#248 = VECTOR( '', #309, 1.00000000000000 );
#249 = CARTESIAN_POINT( '', ( 0.00000000000000, 0.165000000000000, 0.00000000000000 ) );
#250 = CARTESIAN_POINT( '', ( 0.00000000000000, 0.165000000000000, 0.00000000000000 ) );
#251 = VECTOR( '', #310, 1.00000000000000 );
#252 = CARTESIAN_POINT( '', ( 0.00000000000000, 0.0501600000000000, 0.00000000000000 ) );
#253 = CARTESIAN_POINT( '', ( 0.00000000000000, 0.0501600000000000, 0.00000000000000 ) );
#254 = VECTOR( '', #311, 1.00000000000000 );
#255 = CARTESIAN_POINT( '', ( -0.00200000000000000, 0.0501600000000000, 0.00000000000000 ) );
#256 = CARTESIAN_POINT( '', ( -0.00200000000000000, 0.0501600000000000, 0.00000000000000 ) );
#257 = VECTOR( '', #312, 1.00000000000000 );
#258 = CARTESIAN_POINT( '', ( -0.00200000000000000, 0.0500000000000000, 0.00000000000000 ) );
#259 = CARTESIAN_POINT( '', ( -0.00200000000000000, 0.0500000000000000, 0.00000000000000 ) );
#260 = VECTOR( '', #313, 1.00000000000000 );
#261 = CARTESIAN_POINT( '', ( 0.00000000000000, 0.0500000000000000, 0.00000000000000 ) );
#262 = CARTESIAN_POINT( '', ( 0.00000000000000, 0.0500000000000000, 0.00000000000000 ) );
#263 = VECTOR( '', #314, 1.00000000000000 );
#264 = CARTESIAN_POINT( '', ( 0.00000000000000, 0.0195000000000000, 0.00000000000000 ) );
#265 = CARTESIAN_POINT( '', ( 0.00000000000000, 0.0195000000000000, 0.00000000000000 ) );
#266 = VECTOR( '', #315, 1.00000000000000 );
#267 = CARTESIAN_POINT( '', ( -0.0200000000000000, 0.0195000000000000, 0.00000000000000 ) );
#268 = CARTESIAN_POINT( '', ( -0.0200000000000000, 0.0195000000000000, 0.00000000000000 ) );
#269 = VECTOR( '', #316, 1.00000000000000 );
#270 = CARTESIAN_POINT( '', ( -0.0200000000000000, 0.00000000000000, 0.00000000000000 ) );
#271 = VECTOR( '', #317, 1.00000000000000 );
#272 = CARTESIAN_POINT( '', ( 0.910000000000000, 0.165000000000000, 0.00000000000000 ) );
#273 = CARTESIAN_POINT( '', ( 0.910000000000000, 0.00000000000000, 0.00000000000000 ) );
#274 = CARTESIAN_POINT( '', ( 0.910000000000000, 0.165000000000000, 0.00000000000000 ) );
#275 = VECTOR( '', #318, 1.00000000000000 );
#276 = CARTESIAN_POINT( '', ( 0.915000000000000, 0.00000000000000, 0.00000000000000 ) );
#277 = CARTESIAN_POINT( '', ( 0.910000000000000, 0.00000000000000, 0.00000000000000 ) );
#278 = VECTOR( '', #319, 1.00000000000000 );
#279 = CARTESIAN_POINT( '', ( 0.915000000000000, 0.170000000000000, 0.00000000000000 ) );
#280 = CARTESIAN_POINT( '', ( 0.915000000000000, 0.170000000000000, 0.00000000000000 ) );
#281 = VECTOR( '', #320, 1.00000000000000 );
#282 = CARTESIAN_POINT( '', ( 0.00000000000000, 0.170000000000000, 0.00000000000000 ) );
#283 = CARTESIAN_POINT( '', ( 0.00000000000000, 0.170000000000000, 0.00000000000000 ) );
#284 = VECTOR( '', #321, 1.00000000000000 );
#285 = CARTESIAN_POINT( '', ( 0.00000000000000, 0.165000000000000, 0.00000000000000 ) );
#286 = CARTESIAN_POINT( '', ( 0.00000000000000, 0.165000000000000, 0.00000000000000 ) );
#287 = VECTOR( '', #322, 1.00000000000000 );
#288 = CARTESIAN_POINT( '', ( 0.00000000000000, 0.165000000000000, 0.00000000000000 ) );
#289 = VECTOR( '', #323, 1.00000000000000 );
#290 = CARTESIAN_POINT( '', ( 0.915000000000000, 0.170000000000000, 0.00000000000000 ) );
#291 = CARTESIAN_POINT( '', ( 0.915000000000000, 0.00000000000000, 0.00000000000000 ) );
#292 = CARTESIAN_POINT( '', ( 0.915000000000000, 0.170000000000000, 0.00000000000000 ) );
#293 = VECTOR( '', #324, 1.00000000000000 );
#294 = CARTESIAN_POINT( '', ( 0.945000000000000, 0.00000000000000, 0.00000000000000 ) );
#295 = CARTESIAN_POINT( '', ( 0.915000000000000, 0.00000000000000, 0.00000000000000 ) );
#296 = VECTOR( '', #325, 1.00000000000000 );
#297 = CARTESIAN_POINT( '', ( 0.945000000000000, 0.200000000000000, 0.00000000000000 ) );
#298 = CARTESIAN_POINT( '', ( 0.945000000000000, 0.200000000000000, 0.00000000000000 ) );
#299 = VECTOR( '', #326, 1.00000000000000 );
#300 = CARTESIAN_POINT( '', ( 0.00000000000000, 0.200000000000000, 0.00000000000000 ) );
#301 = CARTESIAN_POINT( '', ( 0.00000000000000, 0.200000000000000, 0.00000000000000 ) );
#302 = VECTOR( '', #327, 1.00000000000000 );
#303 = CARTESIAN_POINT( '', ( 0.00000000000000, 0.170000000000000, 0.00000000000000 ) );
#304 = CARTESIAN_POINT( '', ( 0.00000000000000, 0.170000000000000, 0.00000000000000 ) );
#305 = VECTOR( '', #328, 1.00000000000000 );
#306 = CARTESIAN_POINT( '', ( 0.00000000000000, 0.170000000000000, 0.00000000000000 ) );
#307 = VECTOR( '', #329, 1.00000000000000 );
#308 = DIRECTION( '', ( -1.00000000000000, 0.00000000000000, 0.00000000000000 ) );
#309 = DIRECTION( '', ( -6.72862439166762E-16, -1.00000000000000, 0.00000000000000 ) );
#310 = DIRECTION( '', ( 1.00000000000000, 0.00000000000000, 0.00000000000000 ) );
#311 = DIRECTION( '', ( 0.00000000000000, 1.00000000000000, 0.00000000000000 ) );
#312 = DIRECTION( '', ( 1.00000000000000, 0.00000000000000, 0.00000000000000 ) );
#313 = DIRECTION( '', ( 0.00000000000000, 1.00000000000000, 0.00000000000000 ) );
#314 = DIRECTION( '', ( -1.00000000000000, 3.46944695195361E-15, 0.00000000000000 ) );
#315 = DIRECTION( '', ( 0.00000000000000, 1.00000000000000, 0.00000000000000 ) );
#316 = DIRECTION( '', ( 1.00000000000000, 0.00000000000000, 0.00000000000000 ) );
#317 = DIRECTION( '', ( -1.77920356510442E-16, 1.00000000000000, 0.00000000000000 ) );
#318 = DIRECTION( '', ( -6.72862439166762E-16, -1.00000000000000, 0.00000000000000 ) );
#319 = DIRECTION( '', ( 1.00000000000000, 0.00000000000000, 0.00000000000000 ) );
#320 = DIRECTION( '', ( 0.00000000000000, -1.00000000000000, 0.00000000000000 ) );
#321 = DIRECTION( '', ( 1.00000000000000, 0.00000000000000, 0.00000000000000 ) );
#322 = DIRECTION( '', ( 0.00000000000000, 1.00000000000000, 0.00000000000000 ) );
#323 = DIRECTION( '', ( 1.00000000000000, 0.00000000000000, 0.00000000000000 ) );
#324 = DIRECTION( '', ( 0.00000000000000, -1.00000000000000, 0.00000000000000 ) );
#325 = DIRECTION( '', ( 1.00000000000000, 0.00000000000000, 0.00000000000000 ) );
#326 = DIRECTION( '', ( 0.00000000000000, -1.00000000000000, 0.00000000000000 ) );
#327 = DIRECTION( '', ( 1.00000000000000, 0.00000000000000, 0.00000000000000 ) );
#328 = DIRECTION( '', ( 0.00000000000000, 1.00000000000000, 0.00000000000000 ) );
#329 = DIRECTION( '', ( 1.00000000000000, 0.00000000000000, 0.00000000000000 ) );
ENDSEC;
END-ISO-10303-21;
