<?xml version="1.0" encoding="UTF-8"?>
<svg id="_图层_2" data-name="图层 2" xmlns="http://www.w3.org/2000/svg" xmlns:xlink="http://www.w3.org/1999/xlink" viewBox="0 0 12 12">
  <defs>
    <style>
      .cls-1 {
        fill: none;
      }

      .cls-2 {
        fill: url(#_未命名的渐变_484);
      }

      .cls-3 {
        fill: url(#_未命名的渐变_963);
      }
    </style>
    <linearGradient id="_未命名的渐变_963" data-name="未命名的渐变 963" x1="6" y1=".75" x2="6" y2="11.25" gradientTransform="translate(0 12) scale(1 -1)" gradientUnits="userSpaceOnUse">
      <stop offset="0" stop-color="#a5a5c8"/>
      <stop offset="1" stop-color="#dcdcdc"/>
    </linearGradient>
    <linearGradient id="_未命名的渐变_484" data-name="未命名的渐变 484" x1="6" y1="1082" x2="6" y2="1079" gradientTransform="translate(0 -1072)" gradientUnits="userSpaceOnUse">
      <stop offset="0" stop-color="#999" stop-opacity=".5"/>
      <stop offset="1" stop-color="#999"/>
    </linearGradient>
  </defs>
  <g id="_图层_1-2" data-name="图层 1">
    <g id="_图层_2-2" data-name=" 图层 2-2">
      <g>
        <g>
          <path class="cls-3" d="M2,11.25c-.69,0-1.25-.56-1.25-1.25V2c0-.69.56-1.25,1.25-1.25h8c.69,0,1.25.56,1.25,1.25v8c0,.69-.56,1.25-1.25,1.25H2ZM4.25,8.56l4.26-2.56-4.26-2.56v5.12Z"/>
          <path d="M10,1c.55,0,1,.45,1,1v8c0,.55-.45,1-1,1H2c-.55,0-1-.45-1-1V2c0-.55.45-1,1-1h8M4,9l5-3-5-3v6M10,.5H2c-.83,0-1.5.67-1.5,1.5v8c0,.83.67,1.5,1.5,1.5h8c.83,0,1.5-.67,1.5-1.5V2c0-.83-.67-1.5-1.5-1.5h0ZM4.5,8.12V3.88l3.53,2.12-3.53,2.12h0Z"/>
        </g>
        <rect class="cls-1" width="12" height="12"/>
      </g>
      <path class="cls-2" d="M10,7.27v2.46c0,.15-.12.27-.27.27H2.27c-.15,0-.27-.12-.27-.27v-2.46c0-.15.12-.27.27-.27h1.73v2l3.33-2h2.4c.15,0,.27.12.27.27Z"/>
    </g>
  </g>
</svg>